<?xml version="1.0" encoding="UTF-8" standalone="no"?>
<!-- Created with Inkscape (http://www.inkscape.org/) -->

<svg
   version="1.1"
   id="svg2"
   xml:space="preserve"
   width="261.33334"
   height="170.66667"
   viewBox="0 0 261.33334 170.66667"
   sodipodi:docname="gecode-logo.eps"
   xmlns:inkscape="http://www.inkscape.org/namespaces/inkscape"
   xmlns:sodipodi="http://sodipodi.sourceforge.net/DTD/sodipodi-0.dtd"
   xmlns="http://www.w3.org/2000/svg"
   xmlns:svg="http://www.w3.org/2000/svg"><defs
     id="defs6" /><sodipodi:namedview
     id="namedview4"
     pagecolor="#ffffff"
     bordercolor="#666666"
     borderopacity="1.0"
     inkscape:pageshadow="2"
     inkscape:pageopacity="0.0"
     inkscape:pagecheckerboard="0" /><g
     id="g8"
     inkscape:groupmode="layer"
     inkscape:label="ink_ext_XXXXXX"
     transform="matrix(1.3333333,0,0,-1.3333333,0,170.66667)"><g
       id="g10"
       transform="scale(0.1)"><path
         d="M 0.867188,1040.34 V 240.32 c 0,-35.84 29.160112,-65 65.003912,-65 H 408.66 c -110.875,29.707 -193.199,51.778 -193.199,51.778 -71.895,19.277 -114.719,93.437 -95.453,165.336 0,0 142.426,531.515 191.027,712.906 H 65.8711 c -35.8438,0 -65.003912,-29.16 -65.003912,-65"
         style="fill:#ed1c24;fill-opacity:1;fill-rule:nonzero;stroke:none"
         id="path12" /><path
         d="m 474.289,1193.01 c -34.613,9.28 -70.324,-11.34 -79.601,-45.96 L 187.625,374.305 c -4.473,-16.66 -2.129,-34.141 6.602,-49.258 8.711,-15.098 22.695,-25.879 39.359,-30.332 0,0 368.75,-98.809 596.793,-159.922 L 410.848,377.02 c -64.45,37.226 -86.621,119.941 -49.41,184.414 l 330.906,573.156 c -123.196,33.01 -218.055,58.42 -218.055,58.42"
         style="fill:#f68712;fill-opacity:1;fill-rule:nonzero;stroke:none"
         id="path14" /><path
         d="m 861.551,1249.41 c -16.844,-4.51 -30.875,-15.22 -39.492,-30.16 l -400,-692.816 c -17.907,-31.036 -7.243,-70.856 23.789,-88.789 L 1138.66,37.625 c 13.87,-8.0078 29.46,-10.1172 44.08,-7.4414 L 668.055,544.891 c -25.407,25.429 -39.41,59.316 -39.41,95.464 0,36.133 14.003,70.04 39.421,95.45 0,0 242.957,242.968 410.434,410.425 l -167.652,96.81 c -14.942,8.62 -32.45,10.89 -49.297,6.37"
         style="fill:#176fc1;fill-opacity:1;fill-rule:nonzero;stroke:none"
         id="path16" /><path
         d="m 1375.17,1251.98 c -25.35,25.34 -66.58,25.34 -91.93,0 L 717.57,686.313 c -12.211,-12.196 -18.929,-28.528 -18.929,-45.969 0,-17.426 6.718,-33.754 18.929,-45.961 L 1283.25,28.6797 c 25.34,-25.33204 66.57,-25.33204 91.92,0 l 565.68,565.7033 c 12.21,12.187 18.93,28.515 18.93,45.953 0,17.441 -6.72,33.769 -18.93,45.965 l -565.68,565.679"
         style="fill:#217444;fill-opacity:1;fill-rule:nonzero;stroke:none"
         id="path18" /><path
         d="m 1587.19,351.766 c -47,-15.996 -136,-38.008 -225,-38.008 -123.01,0 -212.01,31.008 -274.01,90 -61,59.004 -94.996,147.012 -94.996,246.008 1,224.004 163.996,352.004 384.996,352.004 87,0 154.01,-17 187,-32 l -32,-123.004 c -36.99,17.004 -81.99,29 -155.99,29 -127.01,0 -224.01,-72 -224.01,-217.996 0,-140.008 88.01,-221.004 213.01,-221.004 34,0 61.99,4.004 74,9.004 v 141.992 h -104 v 119.004 h 251 v -355"
         style="fill:#ffffff;fill-opacity:1;fill-rule:nonzero;stroke:none"
         id="path20" /></g></g></svg>
